<?xml version="1.0" encoding="UTF-8" standalone="no"?>
<!DOCTYPE svg PUBLIC "-//W3C//DTD SVG 1.1//EN" "http://www.w3.org/Graphics/SVG/1.1/DTD/svg11.dtd">
<svg id="questionmark" width="100%" height="100%" viewBox="0 0 512 512" version="1.1" xmlns="http://www.w3.org/2000/svg" xmlns:xlink="http://www.w3.org/1999/xlink" xml:space="preserve" xmlns:serif="http://www.serif.com/" style="fill-rule:evenodd;clip-rule:evenodd;stroke-linejoin:round;stroke-miterlimit:2;">
    <g transform="matrix(2.17117,0,0,2.17117,114.331,479.952)">
        <g transform="matrix(288,0,0,288,0,0)">
            <path d="M0.184,-0.198C0.184,-0.225 0.187,-0.249 0.192,-0.268C0.197,-0.287 0.205,-0.304 0.216,-0.32C0.227,-0.336 0.243,-0.354 0.264,-0.375C0.288,-0.398 0.305,-0.416 0.316,-0.428C0.327,-0.441 0.336,-0.457 0.343,-0.474C0.35,-0.492 0.354,-0.513 0.354,-0.538C0.354,-0.578 0.343,-0.61 0.322,-0.634C0.301,-0.657 0.27,-0.669 0.23,-0.669C0.205,-0.669 0.183,-0.664 0.163,-0.654C0.144,-0.644 0.128,-0.63 0.117,-0.611C0.106,-0.592 0.1,-0.57 0.1,-0.545L0.041,-0.545C0.041,-0.581 0.05,-0.612 0.067,-0.639C0.084,-0.665 0.107,-0.686 0.135,-0.7C0.163,-0.714 0.195,-0.721 0.23,-0.721C0.269,-0.721 0.301,-0.713 0.329,-0.698C0.356,-0.683 0.377,-0.662 0.391,-0.634C0.405,-0.607 0.412,-0.575 0.412,-0.539C0.412,-0.511 0.407,-0.485 0.398,-0.462C0.389,-0.439 0.376,-0.417 0.359,-0.397C0.343,-0.377 0.322,-0.356 0.297,-0.333C0.277,-0.316 0.263,-0.296 0.255,-0.273C0.246,-0.251 0.242,-0.226 0.242,-0.198L0.184,-0.198ZM0.216,-0.074C0.228,-0.074 0.238,-0.07 0.245,-0.063C0.253,-0.055 0.256,-0.046 0.256,-0.035C0.256,-0.024 0.253,-0.014 0.245,-0.007C0.238,0.001 0.228,0.004 0.216,0.004C0.204,0.004 0.194,0.001 0.187,-0.007C0.179,-0.014 0.176,-0.023 0.176,-0.035C0.176,-0.046 0.179,-0.055 0.187,-0.063C0.194,-0.07 0.204,-0.074 0.216,-0.074Z" style="fill-rule:nonzero;"/>
        </g>
    </g>
</svg>
