<svg id="Capa_1" data-name="Capa 1" xmlns="http://www.w3.org/2000/svg" viewBox="0 0 81 61.91"><defs><style>.cls-1{fill:#646464;}</style></defs><g id="Gruppe_610" data-name="Gruppe 610"><g id="Gruppe_8" data-name="Gruppe 8"><path id="Pfad_6" data-name="Pfad 6" class="cls-1" d="M80.84,18.08,80.73,18A54.57,54.57,0,0,0,40.49,0,54.57,54.57,0,0,0,.26,17.94a1,1,0,0,0,0,1.35l5.89,6.34a.85.85,0,0,0,1.19.06l.06-.06A44.93,44.93,0,0,1,40.5,10.84,44.91,44.91,0,0,1,73.6,25.63a.85.85,0,0,0,1.19.06l.07-.06,5.88-6.34a.93.93,0,0,0,.26-.67A1,1,0,0,0,80.84,18.08Z"/><path id="Pfad_7" data-name="Pfad 7" class="cls-1" d="M40.5,16.76a38,38,0,0,0-28.39,13,1.06,1.06,0,0,0,0,1.36l5.7,6.31a.81.81,0,0,0,1.14.09.34.34,0,0,0,.08-.09A28.27,28.27,0,0,1,58.9,34.42,27.72,27.72,0,0,1,62,37.48a.8.8,0,0,0,1.13.09.76.76,0,0,0,.09-.09l5.7-6.31a1.06,1.06,0,0,0,0-1.36A38,38,0,0,0,40.5,16.76Z"/><path id="Pfad_8" data-name="Pfad 8" class="cls-1" d="M40.5,33.51a27.63,27.63,0,0,0-19.63,8.14,1,1,0,0,0,0,1.36h0l6.32,6.31a1,1,0,0,0,1.35,0h0a16.9,16.9,0,0,1,23.89,0l0,0a1,1,0,0,0,1.36,0h0L60.12,43a1,1,0,0,0,0-1.36A27.62,27.62,0,0,0,40.5,33.51Z"/><path id="Pfad_9" data-name="Pfad 9" class="cls-1" d="M40.5,51.27a9.59,9.59,0,0,0-6.84,2.83,1,1,0,0,0,0,1.35h0l6.17,6.17a1,1,0,0,0,1.35,0h0l6.17-6.17a1,1,0,0,0,0-1.36A9.61,9.61,0,0,0,40.5,51.27Z"/></g></g></svg>