<?xml version="1.0" encoding="UTF-8" standalone="no"?>
<!DOCTYPE svg PUBLIC "-//W3C//DTD SVG 1.1//EN" "http://www.w3.org/Graphics/SVG/1.1/DTD/svg11.dtd">
<svg width="100%" height="100%" viewBox="0 0 834 834" version="1.1" xmlns="http://www.w3.org/2000/svg" xmlns:xlink="http://www.w3.org/1999/xlink" xml:space="preserve" xmlns:serif="http://www.serif.com/" style="fill-rule:evenodd;clip-rule:evenodd;stroke-linejoin:round;stroke-miterlimit:2;">
    <g id="ArtBoard1" transform="matrix(1.25816,0,0,1.23486,0,0)">
        <rect x="0" y="0" width="662.5" height="675" style="fill:none;"/>
        <g transform="matrix(0.946292,0,0,0.964146,0.0479626,0.0488675)">
            <g id="Ebene1">
                <path d="M700,107.604C700,48.216 651.784,0 592.396,0L107.604,0C48.216,0 0,48.216 0,107.604L0,592.396C0,651.784 48.216,700 107.604,700L592.396,700C651.784,700 700,651.784 700,592.396L700,107.604Z" style="fill:rgb(252,252,252);"/>
            </g>
        </g>
        <g transform="matrix(3.31172,0,0,3.37421,53.0655,54.0667)">
            <g transform="matrix(1,0,0,1,4.6345,2.895)">
                <path d="M153.475,7.32L153.475,39.44C153.465,43.37 150.245,46.56 146.305,46.56C146.285,46.56 146.265,46.55 146.255,46.55L104.025,46.56L104.025,85.59C101.215,87.71 98.664,90.31 96.444,93.3C90.664,101.06 87.144,111.45 87.144,122.87C87.144,129.63 88.374,136.03 90.584,141.74C90.964,142.74 91.384,143.71 91.824,144.66C92.354,145.8 92.924,146.92 93.534,147.99C94.424,149.56 95.394,151.05 96.444,152.45C97.934,154.48 99.594,156.32 101.375,157.96C101.785,158.34 102.205,158.71 102.635,159.06C101.345,160.84 99.244,162 96.874,162L61.854,162C59.494,162 57.404,160.85 56.104,159.08C56.544,158.72 56.974,158.35 57.394,157.96C59.174,156.32 60.834,154.48 62.324,152.45C63.374,151.05 64.344,149.56 65.234,147.99C65.844,146.92 66.414,145.8 66.944,144.66C67.384,143.71 67.804,142.74 68.184,141.74C70.394,136.03 71.624,129.63 71.624,122.87C71.624,111.45 68.104,101.06 62.324,93.3C60.104,90.31 57.554,87.7 54.734,85.59L54.734,46.56L29.994,46.56L29.974,46.55C27.264,46.54 24.924,45 23.724,42.76L23.674,42.73L5.494,10.9C5.494,10.9 5.514,10.86 5.534,10.84C4.954,9.8 4.594,8.63 4.594,7.351C4.594,3.411 7.784,0.21 11.734,0.21C11.754,0.21 11.774,0.221 11.784,0.221L146.255,0.221C146.265,0.221 146.285,0.21 146.305,0.21C150.245,0.21 153.465,3.39 153.475,7.32Z" style="fill:rgb(18,178,140);fill-rule:nonzero;"/>
            </g>
            <g transform="matrix(1,0,0,1,4.6345,2.895)">
                <path d="M63.169,122.435C63.169,128.579 62.146,134.402 60.31,139.589C59.994,140.498 59.645,141.377 59.279,142.247C58.838,143.282 58.365,144.298 57.858,145.275C57.118,146.701 56.312,148.059 55.439,149.329C54.2,151.176 52.821,152.846 51.341,154.341C46.537,159.157 40.602,162 34.177,162C31.817,162 29.515,161.609 27.312,160.877C32.681,160.3 37.452,157.125 41.159,152.221C42.996,149.788 44.567,146.936 45.814,143.761C46.221,142.725 46.595,141.66 46.928,140.556C47.185,139.726 47.426,138.876 47.634,138.007C48.889,132.937 49.396,127.329 48.997,121.477C47.593,100.972 35.513,85.364 22.017,86.66C21.918,86.67 21.826,86.68 21.726,86.689C25.5,84.237 29.722,82.87 34.177,82.87C35.241,82.87 36.297,82.948 37.336,83.104C37.76,83.163 38.192,83.241 38.616,83.329C45.224,84.716 51.1,89.142 55.439,95.54C60.243,102.603 63.169,112.05 63.169,122.435Z" style="fill:rgb(18,178,140);fill-rule:nonzero;"/>
            </g>
            <g transform="matrix(1,0,0,1,4.6345,2.895)">
                <path d="M5.282,90.572C5.09,91.071 5.676,91.459 5.94,91.009C13.8,77.649 30.03,67.576 49.761,64.396C49.966,64.363 50.136,64.506 50.136,64.714L50.136,70.879C50.136,71.1 49.997,71.287 49.811,71.318C45.947,71.968 42.241,72.847 38.741,73.931C38.209,74.087 37.685,74.253 37.17,74.439C26.045,78.1 17.354,83.98 11.926,90.709C11.381,91.384 10.817,92.04 10.23,92.68C7.566,95.585 5.165,99.171 3.441,103.443C2.668,105.348 2.011,107.38 1.487,109.5C1.263,108.758 1.063,108.006 0.889,107.253C0.305,104.724 0,102.124 0,99.477C0,77.306 21.326,58.81 49.703,54.515C49.931,54.481 50.136,54.691 50.136,54.962L50.136,60.341C50.136,60.561 49.998,60.746 49.813,60.779C28.025,64.583 10.891,76.039 5.282,90.572Z" style="fill:rgb(18,178,140);fill-rule:nonzero;"/>
            </g>
            <g transform="matrix(1,0,0,1,4.6345,2.895)">
                <path d="M38.191,135.619C38.025,136.439 37.842,137.25 37.634,138.032C37.335,139.165 36.994,140.259 36.612,141.305C35.523,144.362 34.11,147.039 32.423,149.198C29.813,152.578 26.571,154.698 22.956,155.05C20.695,155.265 18.484,154.776 16.398,153.672C9.192,149.911 3.49,138.999 2.55,125.654C2.409,123.642 2.384,121.668 2.467,119.744C2.55,117.683 2.758,115.68 3.082,113.765C3.382,111.88 3.806,110.072 4.321,108.363C5.044,105.93 5.975,103.703 7.072,101.739C8.884,98.467 11.153,95.927 13.746,94.374C15.259,93.475 16.888,92.908 18.6,92.742C28.666,91.765 37.801,104.934 39.006,122.137C39.338,126.895 39.022,131.477 38.191,135.619Z" style="fill:rgb(18,178,140);fill-rule:nonzero;"/>
            </g>
            <g transform="matrix(1,0,0,1,4.6345,2.895)">
                <path d="M137.004,86.686C136.904,86.676 136.813,86.666 136.713,86.657C123.215,85.387 111.138,100.969 109.733,121.475C109.334,127.327 109.841,132.935 111.096,138.006C111.304,138.875 111.545,139.725 111.803,140.556C112.135,141.659 112.509,142.724 112.916,143.76C114.163,146.935 115.734,149.788 117.571,152.221C121.278,157.125 126.049,160.3 131.418,160.877C129.216,161.609 126.913,162 124.553,162C118.128,162 112.193,159.157 107.389,154.341C105.918,152.865 104.555,151.204 103.325,149.378C102.435,148.088 101.621,146.72 100.873,145.274C100.366,144.297 99.891,143.281 99.451,142.246C99.085,141.376 98.736,140.497 98.42,139.588C96.583,134.401 95.561,128.578 95.561,122.433C95.561,112.028 98.503,102.551 103.325,95.488C107.638,89.158 113.457,84.761 120.006,83.354C120.43,83.257 120.854,83.179 121.286,83.12C122.359,82.954 123.447,82.866 124.553,82.866C129.007,82.866 133.23,84.234 137.004,86.686Z" style="fill:rgb(18,178,140);fill-rule:nonzero;"/>
            </g>
            <g transform="matrix(1,0,0,1,4.6345,2.895)">
                <path d="M158.731,99.474C158.731,102.122 158.426,104.721 157.841,107.251C157.668,108.003 157.467,108.755 157.243,109.498C156.719,107.378 156.063,105.346 155.29,103.44C153.566,99.168 151.165,95.582 148.5,92.676C147.913,92.037 147.349,91.381 146.804,90.706C141.349,83.948 132.601,78.048 121.411,74.386C120.862,74.191 120.306,74.015 119.74,73.858C116.33,72.807 112.733,71.957 108.978,71.327C108.778,71.294 108.628,71.093 108.628,70.855L108.628,64.859C108.628,64.589 108.873,64.38 109.139,64.424C128.631,67.606 144.688,77.523 152.598,90.685C152.886,91.165 153.521,90.745 153.308,90.213C147.563,75.863 130.557,64.565 108.975,60.788C108.776,60.753 108.628,60.554 108.628,60.317L108.628,54.996C108.628,54.705 108.848,54.478 109.093,54.516C137.437,58.83 158.731,77.321 158.731,99.474Z" style="fill:rgb(18,178,140);fill-rule:nonzero;"/>
            </g>
            <g transform="matrix(1,0,0,1,4.6345,2.895)">
                <path d="M120.541,135.62C120.707,136.44 120.89,137.251 121.097,138.033C121.397,139.166 121.737,140.26 122.12,141.306C123.209,144.364 124.622,147.041 126.309,149.2C128.919,152.58 132.16,154.7 135.776,155.052C138.037,155.267 140.248,154.778 142.334,153.674C149.54,149.913 155.242,139 156.181,125.655C156.323,123.642 156.348,121.669 156.264,119.744C156.181,117.683 155.974,115.68 155.649,113.765C155.35,111.88 154.926,110.072 154.411,108.362C153.688,105.93 152.757,103.702 151.66,101.739C149.848,98.466 147.579,95.926 144.985,94.373C143.473,93.474 141.844,92.907 140.131,92.741C130.065,91.764 120.931,104.933 119.726,122.138C119.393,126.896 119.709,131.478 120.541,135.62Z" style="fill:rgb(18,178,140);fill-rule:nonzero;"/>
            </g>
        </g>
    </g>
</svg>
