<?xml version="1.0" encoding="UTF-8" standalone="no"?><!DOCTYPE svg PUBLIC "-//W3C//DTD SVG 1.1//EN" "http://www.w3.org/Graphics/SVG/1.1/DTD/svg11.dtd">
<svg id="l-add" width="100%" height="100%" viewBox="0 0 104 104" version="1.1" xmlns="http://www.w3.org/2000/svg" xmlns:xlink="http://www.w3.org/1999/xlink" xml:space="preserve" xmlns:serif="http://www.serif.com/" style="fill-rule:evenodd;clip-rule:evenodd;stroke-linejoin:round;stroke-miterlimit:2;"><path d="M49,49l-13.971,-0c-1.655,-0 -3,1.344 -3,3c0,1.656 1.345,3 3,3l13.971,-0l0,13.971c-0,1.655 1.344,3 3,3c1.656,-0 3,-1.345 3,-3l0,-13.971l13.971,-0c1.655,-0 3,-1.344 3,-3c-0,-1.656 -1.345,-3 -3,-3l-13.971,-0l0,-13.971c-0,-1.655 -1.344,-3 -3,-3c-1.656,0 -3,1.345 -3,3l0,13.971Z" style="fill:currentColor;"/></svg>
