<?xml version="1.0" encoding="UTF-8" standalone="no"?><!DOCTYPE svg PUBLIC "-//W3C//DTD SVG 1.1//EN" "http://www.w3.org/Graphics/SVG/1.1/DTD/svg11.dtd"><svg id="download" width="100%" height="100%" viewBox="0 0 64 64" version="1.1" xmlns="http://www.w3.org/2000/svg" xmlns:xlink="http://www.w3.org/1999/xlink" xml:space="preserve" xmlns:serif="http://www.serif.com/" style="fill-rule:evenodd;clip-rule:evenodd;stroke-linejoin:round;stroke-miterlimit:2;"><path d="M63.918,29.692c0.054,0.764 0.082,1.533 0.082,2.308c0,17.661 -14.339,32 -32,32c-17.661,0 -32,-14.339 -32,-32c0,-17.661 14.339,-32 32,-32c0.775,0 1.544,0.028 2.308,0.082c-1.024,0.882 -1.962,1.861 -2.8,2.922c-15.78,0.264 -28.508,13.155 -28.508,28.996c0,16.006 12.994,29 29,29c15.841,0 28.732,-12.728 28.996,-28.508c1.061,-0.838 2.04,-1.776 2.922,-2.8Z" style="fill:#ababab;"/><path d="M47.5,0c-9.107,0 -16.5,7.393 -16.5,16.5c0,9.107 7.393,16.5 16.5,16.5c9.107,-0 16.5,-7.393 16.5,-16.5c0,-9.107 -7.393,-16.5 -16.5,-16.5Zm0,3c7.451,-0 13.5,6.049 13.5,13.5c0,7.451 -6.049,13.5 -13.5,13.5c-7.451,0 -13.5,-6.049 -13.5,-13.5c0,-7.451 6.049,-13.5 13.5,-13.5Zm-1.5,16.394l-4.418,-2.945c-0.689,-0.459 -1.621,-0.273 -2.08,0.416c-0.459,0.689 -0.273,1.621 0.416,2.08l7.582,5.055l7.582,-5.055c0.689,-0.459 0.875,-1.391 0.416,-2.08c-0.459,-0.689 -1.391,-0.875 -2.08,-0.416l-4.418,2.945l0,-10.394c0,-0.828 -0.672,-1.5 -1.5,-1.5c-0.828,-0 -1.5,0.672 -1.5,1.5l0,10.394Z" style="fill:#d9d226;"/></svg>
