<?xml version="1.0" encoding="UTF-8" standalone="no"?><!DOCTYPE svg PUBLIC "-//W3C//DTD SVG 1.1//EN" "http://www.w3.org/Graphics/SVG/1.1/DTD/svg11.dtd">
<svg id="close" width="100%" height="100%" viewBox="0 0 64 64" version="1.1" xmlns="http://www.w3.org/2000/svg" xmlns:xlink="http://www.w3.org/1999/xlink" xml:space="preserve" xmlns:serif="http://www.serif.com/" style="fill-rule:evenodd;clip-rule:evenodd;stroke-linejoin:round;stroke-miterlimit:2;"><path d="M29.879,32l-10.94,10.939c-0.585,0.586 -0.585,1.536 0,2.122c0.586,0.585 1.536,0.585 2.122,0l10.939,-10.94l10.939,10.94c0.586,0.585 1.536,0.585 2.122,0c0.585,-0.586 0.585,-1.536 0,-2.122l-10.94,-10.939l10.94,-10.939c0.585,-0.586 0.585,-1.536 0,-2.122c-0.586,-0.585 -1.536,-0.585 -2.122,0l-10.939,10.94l-10.939,-10.94c-0.586,-0.585 -1.536,-0.585 -2.122,0c-0.585,0.586 -0.585,1.536 0,2.122l10.94,10.939Z" style="fill:#f27383;"/></svg>