<?xml version="1.0" encoding="UTF-8" standalone="no"?><!DOCTYPE svg PUBLIC "-//W3C//DTD SVG 1.1//EN" "http://www.w3.org/Graphics/SVG/1.1/DTD/svg11.dtd">
<svg id="volume-mute" width="100%" height="100%" viewBox="0 0 64 64" version="1.1" xmlns="http://www.w3.org/2000/svg" xmlns:xlink="http://www.w3.org/1999/xlink" xml:space="preserve" xmlns:serif="http://www.serif.com/" style="fill-rule:evenodd;clip-rule:evenodd;stroke-linejoin:round;stroke-miterlimit:2;"><path d="M20.914,23.41l-6.35,-6.349c-0.585,-0.586 -0.585,-1.536 0,-2.122c0.586,-0.585 1.536,-0.585 2.122,0l30.875,30.875c0.585,0.586 0.585,1.536 -0,2.122c-0.586,0.585 -1.536,0.585 -2.122,-0l-6.439,-6.44l0,6.504c0,0.53 -0.28,1.021 -0.737,1.291c-0.456,0.27 -1.021,0.279 -1.486,0.023l-20,-11c-0.479,-0.263 -0.777,-0.767 -0.777,-1.314l-0,-10c0,-0.547 0.298,-1.051 0.777,-1.314l4.137,-2.276Zm2.209,2.209l12.877,12.877l0,6.967c-0,0 -17,-9.35 -17,-9.35l0,-8.226l4.123,-2.268Zm21.877,1.381l0,10c0,0.828 0.672,1.5 1.5,1.5c0.828,-0 1.5,-0.672 1.5,-1.5l0,-10c0,-0.828 -0.672,-1.5 -1.5,-1.5c-0.828,-0 -1.5,0.672 -1.5,1.5Zm-18.045,-6.912l2.209,2.209l6.836,-3.76l-0,10.595l3,3l0,-16.132c0,-0.53 -0.28,-1.021 -0.737,-1.291c-0.456,-0.27 -1.021,-0.279 -1.486,-0.023l-9.822,5.402Z" style="fill:currentColor;"/></svg>
