<?xml version="1.0" encoding="UTF-8" standalone="no"?><!DOCTYPE svg PUBLIC "-//W3C//DTD SVG 1.1//EN" "http://www.w3.org/Graphics/SVG/1.1/DTD/svg11.dtd"><svg id="new" width="100%" height="100%" viewBox="0 0 64 64" version="1.1" xmlns="http://www.w3.org/2000/svg" xmlns:xlink="http://www.w3.org/1999/xlink" xml:space="preserve" xmlns:serif="http://www.serif.com/" style="fill-rule:evenodd;clip-rule:evenodd;stroke-linejoin:round;stroke-miterlimit:2;"><path d="M63.917,29.677c0.055,0.768 0.083,1.542 0.083,2.323c0,17.661 -14.339,32 -32,32c-17.661,0 -32,-14.339 -32,-32c0,-17.661 14.339,-32 32,-32c0.772,0 1.537,0.027 2.296,0.081c-1.025,0.882 -1.964,1.862 -2.802,2.923c-15.771,0.269 -28.494,13.159 -28.494,28.996c0,16.006 12.994,29 29,29c15.845,0 28.74,-12.736 28.996,-28.519c1.061,-0.839 2.04,-1.779 2.921,-2.804Z" style="fill:#ababab;"/><path d="M62.475,22.143l0.26,1.619c0.113,0.702 -0.282,1.386 -0.947,1.64c0,-0 -3.347,1.276 -3.347,1.276l-1.276,3.347c-0.253,0.664 -0.938,1.059 -1.639,0.946c-0,0 -3.537,-0.568 -3.537,-0.568l-2.779,2.261c-0.551,0.448 -1.342,0.448 -1.893,-0c0,-0 -2.779,-2.261 -2.779,-2.261l-3.536,0.568c-0.702,0.113 -1.387,-0.282 -1.64,-0.946l-0.584,-1.532l2.913,-0.781l0.039,0.104l2.996,-0.481c0.422,-0.068 0.853,0.047 1.184,0.317c0,-0 2.354,1.914 2.354,1.914l2.353,-1.914c0.332,-0.27 0.762,-0.385 1.185,-0.317c-0,-0 2.995,0.481 2.995,0.481l1.081,-2.835c0.152,-0.399 0.467,-0.715 0.867,-0.867c-0,0 2.834,-1.081 2.834,-1.081l-0.017,-0.109l2.913,-0.781Zm-17.186,0.813l-3.187,0.854l-6.203,-6.46l-0.058,0.016l0.554,1.722c0.117,0.357 0.225,0.704 0.325,1.039l1.281,4.781l-2.202,0.591l-2.772,-10.346l3.173,-0.85l6.166,6.377l0.043,-0.012c-0.056,-0.171 -0.132,-0.405 -0.226,-0.7c-0.095,-0.296 -0.197,-0.618 -0.306,-0.966c-0.109,-0.349 -0.206,-0.683 -0.291,-1.002l-1.285,-4.795l2.216,-0.594l2.772,10.345Zm8.476,-2.272l-6.041,1.619l-2.772,-10.345l6.041,-1.619l0.536,2l-3.579,0.959l0.532,1.985l3.318,-0.889l0.536,1.999l-3.318,0.889l0.625,2.333l3.579,-0.959l0.543,2.028Zm7.82,-13.183l1.735,6.477c0.21,0.782 0.236,1.518 0.079,2.207c-0.157,0.689 -0.515,1.293 -1.076,1.81c-0.56,0.518 -1.327,0.907 -2.303,1.169c-1.391,0.373 -2.549,0.3 -3.475,-0.218c-0.926,-0.518 -1.554,-1.396 -1.885,-2.632l-1.74,-6.491l2.478,-0.664l1.666,6.216c0.214,0.802 0.523,1.327 0.927,1.576c0.403,0.249 0.914,0.291 1.532,0.125c0.647,-0.173 1.071,-0.475 1.271,-0.907c0.2,-0.431 0.196,-1.034 -0.011,-1.806l-1.661,-6.202l2.463,-0.66Zm-27.573,3.105l-0.22,-1.368c-0.113,-0.702 0.283,-1.386 0.947,-1.64c-0,0 3.347,-1.276 3.347,-1.276l1.276,-3.347c0.253,-0.664 0.938,-1.059 1.64,-0.946c-0,-0 3.536,0.568 3.536,0.568l2.779,-2.261c0.551,-0.448 1.342,-0.448 1.893,0c0,0 2.779,2.261 2.779,2.261l3.537,-0.568c0.701,-0.113 1.386,0.282 1.639,0.946l0.494,1.294l-4.24,1.137l-1.617,0.259c-0.423,0.068 -0.853,-0.047 -1.185,-0.317l-2.353,-1.914l-2.354,1.914c-0.331,0.27 -0.762,0.385 -1.184,0.317c-0,0 -2.996,-0.481 -2.996,-0.481l-1.08,2.835c-0.153,0.399 -0.468,0.715 -0.868,0.867l-1.53,0.583l-4.24,1.137Z" style="fill:#99c653;"/></svg>
