<?xml version="1.0" encoding="UTF-8" standalone="no"?><!DOCTYPE svg PUBLIC "-//W3C//DTD SVG 1.1//EN" "http://www.w3.org/Graphics/SVG/1.1/DTD/svg11.dtd">
<svg id="reload" width="100%" height="100%" viewBox="0 0 64 64" version="1.1" xmlns="http://www.w3.org/2000/svg" xmlns:xlink="http://www.w3.org/1999/xlink" xml:space="preserve" xmlns:serif="http://www.serif.com/" style="fill-rule:evenodd;clip-rule:evenodd;stroke-linejoin:round;stroke-miterlimit:2;"><path d="M31.396,18.648c-0.919,0.374 -1.438,1.385 -1.174,2.368l2.268,8.465c0.286,1.066 1.383,1.7 2.45,1.414c1.066,-0.285 1.699,-1.383 1.414,-2.449l-1.509,-5.631c4.782,1.176 8.333,5.495 8.333,10.638c0,6.046 -4.908,10.955 -10.954,10.955c-6.046,-0 -10.955,-4.909 -10.955,-10.955c0,-2.839 1.083,-5.428 2.858,-7.375c0.743,-0.815 0.685,-2.081 -0.131,-2.825c-0.816,-0.744 -2.082,-0.685 -2.825,0.131c-2.423,2.658 -3.902,6.192 -3.902,10.069c0,8.254 6.701,14.955 14.955,14.955c8.253,-0 14.954,-6.701 14.954,-14.955c0,-6.285 -3.885,-11.67 -9.384,-13.881l3.019,-1.743c0.956,-0.552 1.284,-1.776 0.732,-2.732c-0.552,-0.956 -1.776,-1.284 -2.732,-0.732l-7.417,4.283Z" style="fill:currentColor;"/></svg>
