<?xml version="1.0" encoding="UTF-8" standalone="no"?><!DOCTYPE svg PUBLIC "-//W3C//DTD SVG 1.1//EN" "http://www.w3.org/Graphics/SVG/1.1/DTD/svg11.dtd">
<svg id="volume" width="100%" height="100%" viewBox="0 0 64 64" version="1.1" xmlns="http://www.w3.org/2000/svg" xmlns:xlink="http://www.w3.org/1999/xlink" xml:space="preserve" xmlns:serif="http://www.serif.com/" style="fill-rule:evenodd;clip-rule:evenodd;stroke-linecap:round;stroke-linejoin:round;stroke-miterlimit:1.5;"><path d="M17.5,27l-0,10l20,11l0,-32l-20,11Z" style="fill:none;stroke:#9edfb4;stroke-width:3px;"/><path d="M46.5,27l0,10" style="fill:none;stroke:#9edfb4;stroke-width:3px;"/><path d="M16.777,25.686c-0.479,0.263 -0.777,0.767 -0.777,1.314l-0,10c-0,0.547 0.298,1.051 0.777,1.314l20,11c0.465,0.256 1.03,0.247 1.486,-0.023c0.457,-0.27 0.737,-0.761 0.737,-1.291l0,-32c0,-0.53 -0.28,-1.021 -0.737,-1.291c-0.456,-0.27 -1.021,-0.279 -1.486,-0.023l-20,11Zm2.223,2.201l17,-9.35c0,-0 0,26.926 0,26.926c-0,0 -17,-9.35 -17,-9.35l0,-8.226Zm26,-0.887l0,10c0,0.828 0.672,1.5 1.5,1.5c0.828,-0 1.5,-0.672 1.5,-1.5l0,-10c0,-0.828 -0.672,-1.5 -1.5,-1.5c-0.828,-0 -1.5,0.672 -1.5,1.5Z" style="fill:currentColor;"/></svg>
