<?xml version="1.0" encoding="UTF-8" standalone="no"?><!DOCTYPE svg PUBLIC "-//W3C//DTD SVG 1.1//EN" "http://www.w3.org/Graphics/SVG/1.1/DTD/svg11.dtd">
<svg id="play" width="100%" height="100%" viewBox="0 0 64 64" version="1.1" xmlns="http://www.w3.org/2000/svg" xmlns:xlink="http://www.w3.org/1999/xlink" xml:space="preserve" xmlns:serif="http://www.serif.com/" style="fill-rule:evenodd;clip-rule:evenodd;stroke-linejoin:round;stroke-miterlimit:2;"><path d="M24.851,14.648l-0.001,0c-0.197,0.095 -0.376,0.233 -0.521,0.415c-0.108,0.135 -0.189,0.283 -0.244,0.437l-0.002,0.007c-0.054,0.154 -0.083,0.32 -0.083,0.493l0,32c0,0.173 0.029,0.339 0.083,0.493l0.002,0.007c0.055,0.154 0.136,0.302 0.244,0.437c0.145,0.182 0.324,0.32 0.521,0.415l0.001,0c0.196,0.095 0.416,0.148 0.649,0.148c0.173,0 0.339,-0.029 0.493,-0.083l0.007,-0.002c0.154,-0.055 0.302,-0.136 0.437,-0.244l19.978,-15.982c0.05,-0.038 0.098,-0.08 0.144,-0.126l0.004,-0.004c0.105,-0.106 0.192,-0.224 0.259,-0.35c0.12,-0.223 0.178,-0.466 0.178,-0.709c-0,-0.243 -0.058,-0.486 -0.178,-0.709c-0.067,-0.126 -0.154,-0.244 -0.259,-0.35l-0.004,-0.004c-0.046,-0.046 -0.094,-0.088 -0.144,-0.126l-19.978,-15.982c-0.135,-0.108 -0.283,-0.189 -0.437,-0.244l-0.007,-0.002c-0.154,-0.054 -0.32,-0.083 -0.493,-0.083c-0.233,0 -0.453,0.053 -0.649,0.148Zm2.149,30.231l16.099,-12.879l-16.099,-12.879l0,25.758Z" style="fill:currentColor;"/></svg>
