<?xml version="1.0" encoding="UTF-8" standalone="no"?><!DOCTYPE svg PUBLIC "-//W3C//DTD SVG 1.1//EN" "http://www.w3.org/Graphics/SVG/1.1/DTD/svg11.dtd">
<svg id="slow" width="100%" height="100%" viewBox="0 0 40 40" version="1.1" xmlns="http://www.w3.org/2000/svg" xmlns:xlink="http://www.w3.org/1999/xlink" xml:space="preserve" xmlns:serif="http://www.serif.com/" style="fill-rule:evenodd;clip-rule:evenodd;stroke-linejoin:round;stroke-miterlimit:2;"><path d="M28.925,19.895c0.047,0.043 0.088,0.051 0.126,0.019c1.504,-1.289 3.9,-2.812 5.521,-2.223c2.261,0.823 3.906,3.701 2.261,5.003c-1.644,1.302 -2.878,0.548 -3.632,-0.069c-0.754,-0.616 -3.221,1.919 -3.221,1.919c0,0 1.851,1.645 0.549,2.81c-1.302,1.165 -3.769,-0 -3.769,-0c-0,-0 -0.206,1.508 -1.988,1.165c-1.782,-0.343 -3.7,-2.193 -3.7,-2.193c-0,0 -1.508,0.343 -3.838,0.343c-2.33,-0 -4.112,-0.549 -4.112,-0.549c0,0 -2.535,2.468 -3.906,2.056c-1.371,-0.411 -1.302,-1.165 -1.302,-1.165c-0,0 -2.81,2.056 -3.769,0c-0.96,-2.056 0.959,-2.809 0.959,-2.809l-2.604,-1.028c-0,-0 1.645,-0.069 2.741,-0.617c0.235,-0.117 0.413,-0.191 0.548,-0.234c1.433,0.919 3.936,3.231 11.671,2.837c6.677,-0.339 7.708,-1.047 8.699,-2.038c0.581,-0.581 1.362,-1.683 2.102,-2.532c0.233,-0.268 0.455,-0.513 0.664,-0.695Zm-22.549,1.834c0.66,-2.336 3.36,-9.826 10.926,-10.274c7.718,-0.457 10.225,5.553 11.224,7.718c-0.165,0.129 -0.335,0.286 -0.508,0.464c-0.831,0.858 -1.77,2.233 -2.44,2.903c-0.927,0.928 -1.916,1.482 -8.159,1.799c-7.106,0.361 -9.628,-1.653 -11.043,-2.61Z" style="fill:currentColor;"/></svg>
