<?xml version="1.0" encoding="UTF-8" standalone="no"?><!DOCTYPE svg PUBLIC "-//W3C//DTD SVG 1.1//EN" "http://www.w3.org/Graphics/SVG/1.1/DTD/svg11.dtd">
<svg id="fast" width="100%" height="100%" viewBox="0 0 40 40" version="1.1" xmlns="http://www.w3.org/2000/svg" xmlns:xlink="http://www.w3.org/1999/xlink" xml:space="preserve" xmlns:serif="http://www.serif.com/" style="fill-rule:evenodd;clip-rule:evenodd;stroke-linejoin:round;stroke-miterlimit:2;"><path d="M16.073,34.393c-0,0 -1.278,1.551 -3.391,1.551c-2.114,0 -4.08,0.49 -4.08,-1.428c-0,-2.701 2.556,-1.226 4.129,-1.324c1.573,-0.099 1.941,-1.082 1.941,-1.082c0,0 0.32,0.688 0.811,1.18c0.492,0.491 0.59,1.103 0.59,1.103Zm-10.383,-18.459c2.437,-2.842 6.746,-3.524 9.203,-3.353c5.669,0.393 10.44,5.261 12.01,2.703c1.327,-2.163 -2.568,-4.462 -3.703,-6.029c-1.163,-1.606 -2.441,-3.703 -1.851,-4.752c0.341,-0.607 2.392,-0.983 4.096,0.803c1.448,1.518 1.769,3.08 3.276,4.391c1.508,1.311 6.488,3.211 7.471,4.85c0.983,1.638 1.573,3.014 1.639,3.997c0.065,0.983 -0.639,2.205 -2.278,2.462c-1.638,0.258 -4.071,-0.046 -5.382,0.827c-1.31,0.873 -2.023,3.38 -4.464,5.034c-1.602,1.086 -3.801,2.098 -3.801,2.098c-0,-0 0.545,-4.432 -1.508,-7.427c-2.427,-3.541 -5.505,-2.928 -5.505,-2.928c0,-0 4.005,1.063 4.997,5.046c1.03,4.134 -0.343,6.377 0.181,7.537c0.229,0.508 7.34,-1.131 10.485,-0.721c2.672,0.348 3.195,1.72 2.802,2.359c-0.425,0.691 -1.098,1.114 -2.146,1.114c-1.049,0 -3.506,-0.844 -6.161,-0.712c-1.38,0.068 -6.226,1.564 -7.209,1.237c-0.983,-0.328 -1.135,-2.906 -2.949,-3.802c-2.719,-1.343 -10.768,-1.273 -11.01,-9.13c-0.009,-0.318 -0.006,-0.626 0.011,-0.923c-0.963,-0.101 -1.729,-1.571 -1.729,-3.367c-0,-1.862 0.822,-3.373 1.835,-3.373c0.759,-0 1.412,0.85 1.69,2.059Zm20.705,-2.059c-0,-0 -1.316,-1.44 -2.706,-2.968c-2.011,-2.211 -4.08,-4.998 -5.797,-3.078c-1.951,2.182 3.244,4.571 4.767,5.014c1.524,0.442 3.736,1.032 3.736,1.032Z" style="fill:currentColor;"/></svg>
