<?xml version="1.0" encoding="UTF-8" standalone="no"?>
<!DOCTYPE svg PUBLIC "-//W3C//DTD SVG 1.1//EN" "http://www.w3.org/Graphics/SVG/1.1/DTD/svg11.dtd">
<svg id="jymmin" width="100%" height="100%" viewBox="0 0 1024 200" version="1.1" xmlns="http://www.w3.org/2000/svg" xmlns:xlink="http://www.w3.org/1999/xlink" xml:space="preserve" xmlns:serif="http://www.serif.com/" style="fill-rule:evenodd;clip-rule:evenodd;stroke-linejoin:round;stroke-miterlimit:2;">
    <g transform="matrix(0.588699,0,0,0.588699,219.308,-354.47)">
        <path d="M922.386,706.081C922.386,719.985 933.118,726.94 943.546,726.615C953.641,726.302 963.761,719.668 963.761,706.081C963.761,692.823 953.641,685.873 943.238,685.873C932.815,685.873 922.386,692.495 922.386,706.081Z" style="fill:rgb(100,100,100);fill-rule:nonzero;"/>
    </g>
    <g transform="matrix(0.588699,0,0,0.588699,219.308,-354.47)">
        <path d="M1186.26,912.279L1186.39,912.279C1186.39,912.279 1189.91,913.729 1195.15,912.515C1199.42,911.523 1199.75,907.325 1200,899.783L1200,696.986C1200,696.986 1200,692.128 1195.15,692.128L1177.14,692.128C1177.14,692.128 1163.36,692.128 1163.36,705.907L1163.36,758.899C1163.36,758.899 1163.36,772.68 1163.89,786.451C1163.89,786.451 1165.74,813.17 1165.37,826.511C1165.25,831.237 1161.12,835.368 1156.66,830.045L1026.4,691.501L1019.77,691.501C1019.77,691.501 1013.12,691.501 1013.12,705.269L1013.12,908.396C1013.12,908.396 1013.12,913.248 1017.99,913.248L1035.67,913.248C1035.67,913.248 1049.45,913.248 1049.45,899.475L1049.51,836.101C1049.51,836.101 1049.45,833.015 1048.97,819.249L1047.42,776.655C1047.42,776.655 1046.92,762.889 1056.12,773.143L1186.26,912.279Z" style="fill:rgb(100,100,100);fill-rule:nonzero;"/>
    </g>
    <g transform="matrix(0.588699,0,0,0.588699,219.308,-354.47)">
        <path d="M162.083,838.328L162.083,704.591C162.083,704.591 162.083,690.812 148.306,690.812L83.54,690.812C83.54,690.812 78.673,690.812 78.673,695.674L78.673,712.995C78.673,712.995 78.69,720.36 85.118,722.267L118.325,722.267C125.202,722.267 125.478,729.151 125.478,729.151L125.478,734.776L125.425,736.49L125.425,837.695C125.425,866.435 106.17,882.238 78.372,882.238C50.565,882.238 34.432,866.759 34.432,837.695L34.432,831.07C34.432,831.07 34.432,824.432 24.709,824.432L0,824.432L0,838.328C0,886.661 31.939,915.09 78.372,915.09C125.116,915.09 162.083,886.661 162.083,838.328Z" style="fill:rgb(100,100,100);fill-rule:nonzero;"/>
    </g>
    <g transform="matrix(0.588699,0,0,0.588699,219.308,-354.47)">
        <path d="M607.553,899.475L607.553,691.766L601.04,691.766C601.04,691.766 594.232,691.501 585.743,702.336L582.524,705.81L513.419,779.799L513.306,779.799C511.081,782.613 507.691,784.456 503.833,784.456C499.977,784.456 496.561,782.613 494.353,779.799L494.223,779.799L417.681,698.011L415.816,695.869C411.399,690.73 409.019,690.233 406.464,690.922C403.566,691.693 400.314,693.83 400.658,705.269L400.658,908.396C400.658,908.396 400.658,913.248 405.515,913.248L423.849,913.248C423.849,913.248 437.61,913.248 437.61,899.475L437.61,783.381C437.61,783.381 437.378,771.17 446.099,778.802L446.401,779.12L496.889,825.814L496.931,825.893C498.665,827.507 500.987,828.436 503.54,828.436C506.267,828.436 508.726,827.312 510.477,825.527L518.293,818.498L561.112,778.404C561.112,778.404 571.707,767.504 570.603,782.008L570.603,908.396C570.603,908.396 570.603,913.248 575.45,913.248L593.792,913.248C593.792,913.248 607.553,913.248 607.553,899.475Z" style="fill:rgb(100,100,100);fill-rule:nonzero;"/>
    </g>
    <g transform="matrix(0.588699,0,0,0.588699,219.308,-354.47)">
        <path d="M873.191,899.475L873.191,691.766L866.687,691.766C866.687,691.766 859.886,691.501 851.381,702.336L848.172,705.81L779.049,779.799L778.928,779.799C776.709,782.613 773.32,784.456 769.463,784.456C765.599,784.456 762.182,782.613 759.991,779.799L759.853,779.799L683.318,698.011L681.448,695.869C677.019,690.73 674.649,690.233 672.094,690.922C669.214,691.693 665.954,693.83 666.288,705.269L666.288,908.396C666.288,908.396 666.288,913.248 671.137,913.248L689.479,913.248C689.479,913.248 703.257,913.248 703.257,899.475L703.257,783.381C703.257,783.381 703.006,771.17 711.757,778.802L712.039,779.12L762.519,825.814L762.563,825.893C764.288,827.507 766.609,828.436 769.188,828.436C771.914,828.436 774.349,827.312 776.107,825.527L783.914,818.498L826.733,778.404C826.733,778.404 837.337,767.504 836.222,782.008L836.222,908.396C836.222,908.396 836.222,913.248 841.097,913.248L859.413,913.248C859.413,913.248 873.191,913.248 873.191,899.475Z" style="fill:rgb(100,100,100);fill-rule:nonzero;"/>
    </g>
    <g transform="matrix(0.588699,0,0,0.588699,219.308,-354.47)">
        <path d="M277.881,776.486C277.881,776.486 272.732,770.554 266.364,758.346L251.102,734.19L229.007,701.734C229.007,701.734 222.959,690.681 210.82,691.03C210.82,691.03 201.002,690.558 187.595,691.525C184.256,692.653 183.963,695.71 184.567,697.031C185.74,699.556 186.154,700.387 191.27,708.782L254.691,800.31C254.691,800.31 261.739,808.679 261.937,825.796L261.937,908.396C261.937,908.396 261.937,913.248 266.804,913.248L284.809,913.248C284.809,913.248 298.578,913.248 298.578,899.475L298.578,825.796C298.578,825.796 298.173,812.009 305.403,800.285L375.88,697.502C375.88,697.502 376.528,696.193 376.735,695.026C376.958,693.655 377.538,691.051 373.594,691.161L350.904,691.03C350.904,691.03 336.961,692.012 330.189,703.249L311.011,732.969L283.135,776.486C283.135,776.486 282.161,778.229 280.513,778.229C278.855,778.229 277.881,776.486 277.881,776.486Z" style="fill:rgb(100,100,100);fill-rule:nonzero;"/>
    </g>
    <g transform="matrix(0.588699,0,0,0.588699,219.308,-354.47)">
        <path d="M960.285,903.536L960.285,763.942L959.812,756.315C959.12,754.762 957.725,754.035 955.513,754.119L935.576,754.213C935.576,754.213 925.853,754.213 925.853,763.942L925.853,903.536C925.853,903.536 925.853,913.248 935.576,913.248L950.571,913.248C950.571,913.248 960.285,913.248 960.285,903.536Z" style="fill:rgb(100,100,100);fill-rule:nonzero;"/>
    </g>
    <g transform="matrix(0.588699,0,0,0.588699,219.308,-354.47)">
        <path d="M1285.52,664.239L1287.33,664.239C1288.7,664.239 1289.82,664.411 1290.77,664.841C1291.63,665.271 1292.57,666.131 1293.52,667.249C1294.47,668.453 1295.58,670.345 1296.87,672.753L1299.71,678.257L1308.31,678.257L1304.27,671.377C1302.72,668.711 1301.52,666.905 1300.66,665.787C1299.71,664.669 1298.51,663.809 1297.05,663.293C1299.97,662.863 1302.21,661.831 1303.84,660.025C1305.47,658.305 1306.25,656.241 1306.25,653.833C1306.25,651.855 1305.82,650.221 1304.96,648.673C1304.1,647.211 1302.81,646.093 1301.09,645.319C1299.37,644.545 1297.22,644.115 1294.72,644.115L1278.56,644.115L1278.56,678.257L1285.52,678.257L1285.52,664.239ZM1291.8,649.533C1294.21,649.533 1296.01,649.963 1297.13,650.737C1298.25,651.511 1298.85,652.543 1298.85,653.919C1298.85,655.897 1298.16,657.187 1296.87,657.875C1295.58,658.477 1293.61,658.821 1291.11,658.821L1285.52,658.821L1285.52,649.533L1291.8,649.533ZM1276.92,633.193C1272.02,636.031 1268.06,639.987 1265.23,644.889C1262.39,649.877 1260.93,655.209 1260.93,661.057C1260.93,666.905 1262.39,672.237 1265.23,677.225C1268.06,682.127 1272.02,686.083 1276.92,688.921C1281.91,691.759 1287.24,693.221 1293.09,693.221C1298.94,693.221 1304.27,691.759 1309.26,688.921C1314.16,686.083 1318.12,682.127 1320.95,677.225C1323.79,672.237 1325.25,666.905 1325.25,661.057C1325.25,656.671 1324.39,652.543 1322.76,648.587C1321.13,644.717 1318.89,641.277 1315.88,638.267C1312.87,635.257 1309.43,633.021 1305.56,631.387C1301.6,629.753 1297.48,628.893 1293.09,628.893C1287.24,628.893 1281.91,630.355 1276.92,633.193ZM1306.16,638.611C1310.12,640.933 1313.21,644.029 1315.54,648.071C1317.86,652.027 1318.98,656.327 1318.98,661.057C1318.98,665.701 1317.86,670.087 1315.54,674.043C1313.21,677.999 1310.12,681.181 1306.16,683.503C1302.29,685.825 1297.91,686.943 1293.18,686.943C1288.53,686.943 1284.23,685.825 1280.28,683.503C1276.32,681.181 1273.14,678.085 1270.82,674.043C1268.49,670.087 1267.29,665.701 1267.29,661.057C1267.29,656.413 1268.41,652.027 1270.73,648.071C1273.05,644.115 1276.23,640.933 1280.19,638.611C1284.15,636.289 1288.53,635.171 1293.18,635.171C1297.91,635.171 1302.21,636.289 1306.16,638.611Z" style="fill:rgb(100,100,100);fill-rule:nonzero;"/>
    </g>
    <g transform="matrix(0.325812,0,0,0.325812,22.3986,28.4021)">
        <path d="M393.2,104.1L392.8,103.9C295.2,305.1 178.8,470.5 64.2,362.4C49,348.7 37.6,335 25,315C36.3,346.8 51.1,376.2 69.1,402.7C212.9,592.8 373.1,373.4 488.8,143.4C489,143 491.6,135 491.6,135C492.6,130.9 493.3,126.6 493.3,122.2C493.3,93.6 470.1,70.3 441.5,70.3C419.4,70.4 400.6,84.4 393.2,104.1Z" style="fill:rgb(100,100,100);fill-rule:nonzero;"/>
        <path d="M254.7,64.5C81.3,448.1 19.8,243.2 8.1,221.6C42.4,383.8 147.3,343.5 147.3,343.5C213,320.1 279.1,216.6 336.7,99.4C336.8,99.2 337,98.9 337.1,98.7C337.2,98.5 337.3,98.3 337.4,98.1L337.3,98.1C339.4,92.9 340.6,87.4 340.6,81.5C340.6,56.8 320.6,36.9 296,36.9C277.3,36.8 261.4,48.3 254.7,64.5Z" style="fill:rgb(100,100,100);fill-rule:nonzero;"/>
        <path d="M136.7,46.6L136.5,46.6C57.4,237.6 15.7,187.3 6.5,171.5C10.7,185.2 12.9,192.1 17.6,201C39.4,241.3 95.2,291.8 198.7,70.8L198.4,70.7C199.9,66.9 200.8,62.7 200.8,58.5C201,40 186.1,25 167.7,25C153.5,25 141.5,34 136.7,46.6Z" style="fill:rgb(100,100,100);fill-rule:nonzero;"/>
    </g>
</svg>
