<?xml version="1.0" encoding="utf-8"?>
<!-- Generator: Adobe Illustrator 18.0.0, SVG Export Plug-In . SVG Version: 6.00 Build 0)  -->
<!DOCTYPE svg PUBLIC "-//W3C//DTD SVG 1.1 Tiny//EN" "http://www.w3.org/Graphics/SVG/1.1/DTD/svg11-tiny.dtd">
<svg version="1.1" baseProfile="tiny" id="Ebene_1" xmlns="http://www.w3.org/2000/svg" xmlns:xlink="http://www.w3.org/1999/xlink"
	 x="0px" y="0px" viewBox="0 0 500 500" xml:space="preserve">
<path d="M393.2,104.1l-0.4-0.2c-97.6,201.2-214,366.6-328.6,258.5C49,348.7,37.6,335,25,315c11.3,31.8,26.1,61.2,44.1,87.7
	c143.8,190.1,304-29.3,419.7-259.3c0.2-0.4,2.8-8.4,2.8-8.4c1-4.1,1.7-8.4,1.7-12.8c0-28.6-23.2-51.9-51.8-51.9
	C419.4,70.4,400.6,84.4,393.2,104.1z"/>
<path d="M254.7,64.5C81.3,448.1,19.8,243.2,8.1,221.6c34.3,162.2,139.2,121.9,139.2,121.9C213,320.1,279.1,216.6,336.7,99.4
	c0.1-0.2,0.3-0.5,0.4-0.7c0.1-0.2,0.2-0.4,0.3-0.6l-0.1,0c2.1-5.2,3.3-10.7,3.3-16.6c0-24.7-20-44.6-44.6-44.6
	C277.3,36.8,261.4,48.3,254.7,64.5z"/>
<path d="M136.7,46.6l-0.2,0c-79.1,191-120.8,140.7-130,124.9c4.2,13.7,6.4,20.6,11.1,29.5c21.8,40.3,77.6,90.8,181.1-130.2l-0.3-0.1
	c1.5-3.8,2.4-8,2.4-12.2C201,40,186.1,25,167.7,25C153.5,25,141.5,34,136.7,46.6z"/>
</svg>
