<?xml version="1.0" encoding="UTF-8" standalone="no"?><!DOCTYPE svg PUBLIC "-//W3C//DTD SVG 1.1//EN" "http://www.w3.org/Graphics/SVG/1.1/DTD/svg11.dtd"><svg width="100%" height="100%" viewBox="0 0 4267 834" version="1.1" xmlns="http://www.w3.org/2000/svg" xmlns:xlink="http://www.w3.org/1999/xlink" xml:space="preserve" xmlns:serif="http://www.serif.com/" style="fill-rule:evenodd;clip-rule:evenodd;stroke-linejoin:round;stroke-miterlimit:2;"><path d="M2770.5,254.994c0,34.105 26.325,51.165 51.904,50.368c24.762,-0.768 49.585,-17.04 49.585,-50.368c0,-32.521 -24.823,-49.568 -50.341,-49.568c-25.566,-0 -51.148,16.243 -51.148,49.568Z" style="fill:#fff;fill-rule:nonzero;"/><path d="M3417.76,760.78l0.319,-0c-0,-0 8.634,3.556 21.487,0.578c10.474,-2.433 11.284,-12.73 11.897,-31.23l-0,-497.443c-0,-0 -0,-11.916 -11.897,-11.916l-44.177,-0c0,-0 -33.801,-0 -33.801,33.798l0,129.985c0,-0 0,33.803 1.3,67.583c0,-0 4.538,65.539 3.63,98.263c-0.294,11.593 -10.424,21.726 -21.364,8.669l-319.517,-339.836l-16.262,-0c-0,-0 -16.312,-0 -16.312,33.771l-0,498.253c-0,-0 -0,11.901 11.945,11.901l43.368,0c-0,0 33.801,0 33.801,-33.784l0.147,-155.45c0,-0 -0.147,-7.57 -1.325,-41.337l-3.801,-104.479c-0,-0 -1.227,-33.767 21.34,-8.615l319.222,341.289Z" style="fill:#fff;fill-rule:nonzero;"/><path d="M905.543,579.384l0,-328.045c0,0 0,-33.798 -33.794,-33.798l-158.865,-0c0,-0 -11.938,-0 -11.938,11.926l-0,42.486c-0,0 0.041,18.066 15.809,22.744l81.454,-0c16.868,-0 17.545,16.886 17.545,16.886l0,13.797l-0.13,4.205l0,248.247c0,70.496 -47.231,109.26 -115.417,109.26c-68.208,-0 -107.781,-37.969 -107.781,-109.26l0,-16.251c0,0 0,-16.282 -23.849,-16.282l-60.609,-0l-0,34.085c-0,118.557 78.343,188.291 192.239,188.291c114.659,-0 205.336,-69.734 205.336,-188.291Z" style="fill:#fff;fill-rule:nonzero;"/><path d="M1998.24,729.372l-0,-509.491l-15.976,-0c-0,-0 -16.7,-0.65 -37.522,25.927l-7.896,8.521l-169.509,181.489l-0.277,-0c-5.458,6.902 -13.773,11.423 -23.236,11.423c-9.459,-0 -17.838,-4.521 -23.254,-11.423l-0.319,-0l-187.751,-200.619l-4.574,-5.254c-10.835,-12.606 -16.673,-13.825 -22.94,-12.135c-7.108,1.892 -15.085,7.133 -14.242,35.192l0,498.253c0,-0 0,11.901 11.914,11.901l44.972,0c-0,0 33.754,0 33.754,-33.784l0,-284.768c0,0 -0.569,-29.952 20.823,-11.232l0.741,0.78l123.843,114.536l0.103,0.194c4.253,3.959 9.949,6.238 16.211,6.238c6.689,0 12.721,-2.757 17.016,-7.136l19.172,-17.241l105.031,-98.347c-0,-0 25.989,-26.737 23.281,8.84l-0,310.019c-0,-0 -0,11.901 11.889,11.901l44.991,0c0,0 33.755,0 33.755,-33.784Z" style="fill:#fff;fill-rule:nonzero;"/><path d="M2649.83,729.372l0,-509.491l-15.954,-0c0,-0 -16.682,-0.65 -37.544,25.927l-7.871,8.521l-169.553,181.489l-0.297,-0c-5.443,6.902 -13.756,11.423 -23.216,11.423c-9.478,-0 -17.86,-4.521 -23.234,-11.423l-0.339,-0l-187.734,-200.619l-4.586,-5.254c-10.864,-12.606 -16.678,-13.825 -22.945,-12.135c-7.064,1.892 -15.061,7.133 -14.242,35.192l0,498.253c0,-0 0,11.901 11.895,11.901l44.991,0c-0,0 33.796,0 33.796,-33.784l0,-284.768c0,0 -0.616,-29.952 20.85,-11.232l0.692,0.78l123.822,114.536l0.108,0.194c4.232,3.959 9.925,6.238 16.251,6.238c6.687,0 12.659,-2.757 16.972,-7.136l19.15,-17.241l105.031,-98.347c-0,-0 26.01,-26.737 23.275,8.84l0,310.019c0,-0 0,11.901 11.958,11.901l44.928,0c0,0 33.796,0 33.796,-33.784Z" style="fill:#fff;fill-rule:nonzero;"/><path d="M1189.59,427.691c0,0 -12.63,-14.55 -28.25,-44.496l-37.436,-59.252l-54.197,-79.612c-0,0 -14.835,-27.112 -44.611,-26.256c-0,0 -24.083,-1.157 -56.969,1.214c-8.19,2.767 -8.909,10.266 -7.428,13.506c2.878,6.194 3.893,8.232 16.442,28.824l155.566,224.51c0,0 17.289,20.529 17.774,62.515l0,202.611c0,-0 0,11.901 11.938,11.901l44.165,0c0,0 33.774,0 33.774,-33.784l0,-180.728c0,0 -0.993,-33.818 16.741,-62.576l172.874,-252.117c0,-0 1.59,-3.211 2.097,-6.074c0.548,-3.363 1.97,-9.75 -7.704,-9.48l-55.657,-0.322c0,0 -34.201,2.409 -50.812,29.972l-47.042,72.901l-68.377,106.743c-0,0 -2.389,4.276 -6.432,4.276c-4.066,-0 -6.456,-4.276 -6.456,-4.276Z" style="fill:#fff;fill-rule:nonzero;"/><path d="M2863.46,739.334l-0,-342.412l-1.16,-18.708c-1.698,-3.81 -5.119,-5.593 -10.545,-5.387l-48.904,0.231c0,-0 -23.85,-0 -23.85,23.864l0,342.412c0,-0 0,23.822 23.85,23.822l36.781,0c0,0 23.828,0 23.828,-23.822Z" style="fill:#fff;fill-rule:nonzero;"/><path d="M3661.24,152.359l4.43,0c3.375,0 6.117,0.422 8.438,1.477c2.109,1.055 4.43,3.164 6.75,5.907c2.32,2.953 5.063,7.594 8.227,13.5l6.962,13.501l21.095,0l-9.915,-16.876c-3.797,-6.539 -6.751,-10.969 -8.86,-13.712c-2.32,-2.742 -5.274,-4.851 -8.86,-6.117c7.172,-1.055 12.657,-3.586 16.665,-8.016c4.008,-4.219 5.907,-9.282 5.907,-15.189c-0,-4.852 -1.055,-8.86 -3.165,-12.657c-2.109,-3.586 -5.273,-6.328 -9.492,-8.227c-4.219,-1.898 -9.493,-2.953 -15.611,-2.953l-39.658,-0l-0,83.747l17.087,0l-0,-34.385Zm15.399,-36.072c5.907,-0 10.337,1.055 13.079,2.953c2.742,1.899 4.219,4.43 4.219,7.805c0,4.852 -1.688,8.016 -4.852,9.704c-3.164,1.477 -8.016,2.32 -14.133,2.32l-13.712,0l-0,-22.782l15.399,-0Zm-36.494,-40.081c-12.024,6.962 -21.728,16.665 -28.69,28.689c-6.961,12.236 -10.547,25.315 -10.547,39.659c-0,14.345 3.586,27.424 10.547,39.659c6.962,12.024 16.666,21.728 28.69,28.689c12.235,6.961 25.314,10.548 39.658,10.548c14.345,-0 27.424,-3.587 39.659,-10.548c12.024,-6.961 21.728,-16.665 28.689,-28.689c6.962,-12.235 10.548,-25.314 10.548,-39.659c-0,-10.758 -2.11,-20.884 -6.118,-30.588c-4.008,-9.492 -9.493,-17.93 -16.876,-25.314c-7.383,-7.383 -15.821,-12.868 -25.314,-16.876c-9.704,-4.008 -19.829,-6.117 -30.588,-6.117c-14.344,-0 -27.423,3.586 -39.658,10.547Zm71.723,13.29c9.704,5.696 17.298,13.29 22.993,23.205c5.696,9.703 8.438,20.251 8.438,31.853c0,11.391 -2.742,22.15 -8.438,31.854c-5.695,9.703 -13.289,17.509 -22.993,23.204c-9.493,5.696 -20.251,8.438 -31.854,8.438c-11.391,0 -21.938,-2.742 -31.642,-8.438c-9.704,-5.695 -17.509,-13.29 -23.205,-23.204c-5.695,-9.704 -8.649,-20.463 -8.649,-31.854c0,-11.391 2.742,-22.15 8.438,-31.853c5.696,-9.704 13.501,-17.509 23.205,-23.205c9.703,-5.696 20.462,-8.438 31.853,-8.438c11.603,0 22.15,2.742 31.854,8.438Z" style="fill:#fff;fill-rule:nonzero;"/></svg>