<?xml version="1.0" encoding="UTF-8" standalone="no"?>
<!DOCTYPE svg PUBLIC "-//W3C//DTD SVG 1.1//EN" "http://www.w3.org/Graphics/SVG/1.1/DTD/svg11.dtd">
<svg width="100%" height="100%" viewBox="0 0 6467 399" version="1.1" xmlns="http://www.w3.org/2000/svg" xmlns:xlink="http://www.w3.org/1999/xlink" xml:space="preserve" xmlns:serif="http://www.serif.com/" style="fill-rule:evenodd;clip-rule:evenodd;stroke-linejoin:round;stroke-miterlimit:2;">
    <g id="ArtBoard1" transform="matrix(2.71326,0,0,0.493848,0,-0.421832)">
        <rect x="0" y="0.854" width="2383.33" height="807.479" style="fill:rgb(100,100,100);"/>
        <clipPath id="_clip1">
            <rect x="0" y="0.854" width="2383.33" height="807.479"/>
        </clipPath>
        <g clip-path="url(#_clip1)">
            <g transform="matrix(1.53567,0,0,8.43714,-102.685,0.854174)">
                <g transform="matrix(1,0,0,1,5.45697e-13,-2.07304)">
                    <g transform="matrix(1.92828,0,0,1.92828,515.185,-271.634)">
                        <path d="M530.93,163.977C530.93,165.364 532.001,166.058 533.042,166.026C534.049,165.994 535.059,165.332 535.059,163.977C535.059,162.654 534.049,161.96 533.011,161.96C531.971,161.96 530.93,162.621 530.93,163.977Z" style="fill:white;fill-rule:nonzero;"/>
                    </g>
                    <g transform="matrix(1.92828,0,0,1.92828,515.185,-271.634)">
                        <path d="M557.262,184.553L557.275,184.553C557.275,184.553 557.626,184.697 558.149,184.576C558.575,184.477 558.608,184.058 558.633,183.306L558.633,163.069C558.633,163.069 558.633,162.584 558.149,162.584L556.352,162.584C556.352,162.584 554.977,162.584 554.977,163.959L554.977,169.247C554.977,169.247 554.977,170.622 555.029,171.996C555.029,171.996 555.214,174.663 555.177,175.994C555.165,176.466 554.753,176.878 554.308,176.347L541.31,162.522L540.648,162.522C540.648,162.522 539.984,162.522 539.984,163.896L539.984,184.165C539.984,184.165 539.984,184.649 540.47,184.649L542.235,184.649C542.235,184.649 543.61,184.649 543.61,183.275L543.616,176.951C543.616,176.951 543.61,176.643 543.562,175.269L543.407,171.019C543.407,171.019 543.357,169.645 544.275,170.669L557.262,184.553Z" style="fill:white;fill-rule:nonzero;"/>
                    </g>
                    <g transform="matrix(1.92828,0,0,1.92828,515.185,-271.634)">
                        <path d="M455.061,177.173L455.061,163.828C455.061,163.828 455.061,162.453 453.686,162.453L447.223,162.453C447.223,162.453 446.737,162.453 446.737,162.938L446.737,164.667C446.737,164.667 446.739,165.401 447.381,165.592L450.694,165.592C451.38,165.592 451.408,166.279 451.408,166.279L451.408,166.84L451.403,167.011L451.403,177.11C451.403,179.978 449.481,181.555 446.707,181.555C443.933,181.555 442.323,180.01 442.323,177.11L442.323,176.449C442.323,176.449 442.323,175.787 441.352,175.787L438.887,175.787L438.887,177.173C438.887,181.996 442.074,184.833 446.707,184.833C451.372,184.833 455.061,181.996 455.061,177.173Z" style="fill:white;fill-rule:nonzero;"/>
                    </g>
                    <g transform="matrix(1.92828,0,0,1.92828,515.185,-271.634)">
                        <path d="M499.514,183.275L499.514,162.548L498.864,162.548C498.864,162.548 498.184,162.522 497.337,163.603L497.016,163.949L490.12,171.333L490.109,171.333C489.887,171.614 489.548,171.797 489.163,171.797C488.779,171.797 488.438,171.614 488.217,171.333L488.205,171.333L480.566,163.171L480.38,162.958C479.94,162.445 479.702,162.395 479.447,162.464C479.158,162.541 478.834,162.754 478.868,163.896L478.868,184.165C478.868,184.165 478.868,184.649 479.352,184.649L481.182,184.649C481.182,184.649 482.555,184.649 482.555,183.275L482.555,171.69C482.555,171.69 482.532,170.472 483.402,171.233L483.432,171.265L488.47,175.924L488.475,175.932C488.648,176.093 488.88,176.186 489.134,176.186C489.406,176.186 489.652,176.074 489.826,175.896L490.606,175.194L494.879,171.194C494.879,171.194 495.936,170.106 495.826,171.553L495.826,184.165C495.826,184.165 495.826,184.649 496.31,184.649L498.14,184.649C498.14,184.649 499.514,184.649 499.514,183.275Z" style="fill:white;fill-rule:nonzero;"/>
                    </g>
                    <g transform="matrix(1.92828,0,0,1.92828,515.185,-271.634)">
                        <path d="M526.021,183.275L526.021,162.548L525.372,162.548C525.372,162.548 524.693,162.522 523.844,163.603L523.524,163.949L516.627,171.333L516.615,171.333C516.393,171.614 516.055,171.797 515.669,171.797C515.284,171.797 514.943,171.614 514.724,171.333L514.711,171.333L507.074,163.171L506.887,162.958C506.445,162.445 506.209,162.395 505.954,162.464C505.667,162.541 505.341,162.754 505.375,163.896L505.375,184.165C505.375,184.165 505.375,184.649 505.858,184.649L507.689,184.649C507.689,184.649 509.064,184.649 509.064,183.275L509.064,171.69C509.064,171.69 509.039,170.472 509.912,171.233L509.94,171.265L514.977,175.924L514.982,175.932C515.154,176.093 515.385,176.186 515.643,176.186C515.914,176.186 516.158,176.074 516.333,175.896L517.112,175.194L521.385,171.194C521.385,171.194 522.443,170.106 522.331,171.553L522.331,184.165C522.331,184.165 522.331,184.649 522.818,184.649L524.646,184.649C524.646,184.649 526.021,184.649 526.021,183.275Z" style="fill:white;fill-rule:nonzero;"/>
                    </g>
                    <g transform="matrix(1.92828,0,0,1.92828,515.185,-271.634)">
                        <path d="M466.616,171.002C466.616,171.002 466.102,170.41 465.467,169.192L463.944,166.781L461.739,163.543C461.739,163.543 461.136,162.44 459.924,162.475C459.924,162.475 458.944,162.427 457.607,162.524C457.273,162.637 457.244,162.942 457.305,163.073C457.421,163.325 457.463,163.408 457.973,164.246L464.302,173.379C464.302,173.379 465.005,174.215 465.025,175.923L465.025,184.165C465.025,184.165 465.025,184.649 465.511,184.649L467.307,184.649C467.307,184.649 468.681,184.649 468.681,183.275L468.681,175.923C468.681,175.923 468.641,174.547 469.363,173.377L476.395,163.12C476.395,163.12 476.46,162.99 476.481,162.873C476.503,162.736 476.561,162.477 476.167,162.488L473.903,162.475C473.903,162.475 472.512,162.573 471.836,163.694L469.922,166.66L467.14,171.002C467.14,171.002 467.043,171.176 466.879,171.176C466.713,171.176 466.616,171.002 466.616,171.002Z" style="fill:white;fill-rule:nonzero;"/>
                    </g>
                    <g transform="matrix(1.92828,0,0,1.92828,515.185,-271.634)">
                        <path d="M534.712,183.68L534.712,169.75L534.665,168.989C534.596,168.834 534.457,168.762 534.236,168.77L532.246,168.78C532.246,168.78 531.276,168.78 531.276,169.75L531.276,183.68C531.276,183.68 531.276,184.649 532.246,184.649L533.743,184.649C533.743,184.649 534.712,184.649 534.712,183.68Z" style="fill:white;fill-rule:nonzero;"/>
                    </g>
                    <g transform="matrix(1.92828,0,0,1.92828,515.185,-271.634)">
                        <path d="M569.227,157.244C569.621,157.476 569.93,157.785 570.162,158.188C570.394,158.583 570.505,159.012 570.505,159.484C570.505,159.947 570.394,160.385 570.162,160.78C569.93,161.174 569.621,161.492 569.227,161.724C568.84,161.955 568.403,162.067 567.931,162.067C567.467,162.067 567.038,161.955 566.643,161.724C566.249,161.492 565.931,161.183 565.699,160.78C565.468,160.385 565.348,159.947 565.348,159.484C565.348,159.02 565.459,158.583 565.691,158.188C565.923,157.793 566.24,157.476 566.635,157.244C567.03,157.012 567.467,156.901 567.931,156.901C568.403,156.901 568.832,157.012 569.227,157.244ZM566.309,156.703C565.82,156.986 565.425,157.381 565.142,157.87C564.858,158.368 564.713,158.9 564.713,159.484C564.713,160.067 564.858,160.599 565.142,161.097C565.425,161.586 565.82,161.981 566.309,162.264C566.806,162.547 567.339,162.693 567.922,162.693C568.506,162.693 569.038,162.547 569.536,162.264C570.025,161.981 570.419,161.586 570.703,161.097C570.986,160.599 571.132,160.067 571.132,159.484C571.132,159.046 571.046,158.634 570.883,158.239C570.72,157.853 570.497,157.51 570.196,157.21C569.896,156.909 569.553,156.686 569.167,156.523C568.772,156.36 568.36,156.274 567.922,156.274C567.339,156.274 566.806,156.42 566.309,156.703ZM567.793,158.334C568.034,158.334 568.214,158.377 568.325,158.454C568.437,158.531 568.497,158.634 568.497,158.771C568.497,158.969 568.428,159.098 568.3,159.166C568.171,159.226 567.974,159.261 567.725,159.261L567.167,159.261L567.167,158.334L567.793,158.334ZM567.167,159.801L567.347,159.801C567.484,159.801 567.596,159.818 567.69,159.861C567.776,159.904 567.871,159.99 567.965,160.102C568.06,160.222 568.171,160.411 568.3,160.651L568.583,161.2L569.441,161.2L569.038,160.513C568.883,160.247 568.763,160.067 568.677,159.956C568.583,159.844 568.463,159.758 568.317,159.707C568.609,159.664 568.832,159.561 568.995,159.381C569.158,159.209 569.235,159.003 569.235,158.763C569.235,158.565 569.192,158.402 569.106,158.248C569.021,158.102 568.892,157.99 568.72,157.913C568.549,157.836 568.334,157.793 568.085,157.793L566.472,157.793L566.472,161.2L567.167,161.2L567.167,159.801Z" style="fill:white;fill-rule:nonzero;"/>
                    </g>
                    <g transform="matrix(1.92828,0,0,1.92828,515.185,-271.634)">
                        <path d="M427.225,164.166L427.202,164.155C421.812,175.267 415.384,184.402 409.055,178.432C408.215,177.675 407.586,176.918 406.89,175.814C407.514,177.57 408.331,179.194 409.325,180.657C417.267,191.156 426.115,179.039 432.504,166.337C432.516,166.315 432.659,165.873 432.659,165.873C432.714,165.647 432.753,165.409 432.753,165.166C432.753,163.587 431.472,162.3 429.892,162.3C428.672,162.305 427.633,163.079 427.225,164.166Z" style="fill:white;fill-rule:nonzero;"/>
                    </g>
                    <g transform="matrix(1.92828,0,0,1.92828,515.185,-271.634)">
                        <path d="M419.576,161.979C409.999,183.165 406.603,171.848 405.957,170.656C407.851,179.614 413.644,177.388 413.644,177.388C417.273,176.095 420.923,170.38 424.104,163.907C424.11,163.896 424.121,163.879 424.126,163.868C424.132,163.857 424.137,163.846 424.143,163.835L424.137,163.835C424.253,163.548 424.32,163.244 424.32,162.918C424.32,161.554 423.215,160.455 421.857,160.455C420.824,160.45 419.946,161.085 419.576,161.979Z" style="fill:white;fill-rule:nonzero;"/>
                    </g>
                    <g transform="matrix(1.92828,0,0,1.92828,515.185,-271.634)">
                        <path d="M413.059,160.991L413.048,160.991C408.679,171.539 406.376,168.761 405.868,167.889C406.1,168.645 406.222,169.026 406.481,169.518C407.685,171.744 410.767,174.533 416.483,162.327L416.466,162.322C416.549,162.112 416.599,161.88 416.599,161.648C416.61,160.626 415.787,159.798 414.771,159.798C413.987,159.798 413.324,160.295 413.059,160.991Z" style="fill:white;fill-rule:nonzero;"/>
                    </g>
                    <g transform="matrix(0.343539,0,0,0.296807,624.827,-143.196)">
                        <g transform="matrix(181.76,0,0,181.76,959.087,770.138)">
                            <path d="M0.501,-0.259C0.501,-0.206 0.493,-0.159 0.478,-0.119C0.462,-0.078 0.438,-0.047 0.408,-0.024C0.378,-0.002 0.341,0.01 0.3,0.01C0.263,0.01 0.231,0.003 0.203,-0.01C0.176,-0.024 0.153,-0.042 0.134,-0.067L0.134,0.203L0.076,0.203L0.076,-0.528L0.13,-0.528L0.133,-0.454C0.152,-0.481 0.174,-0.502 0.202,-0.516C0.23,-0.531 0.262,-0.538 0.299,-0.538C0.341,-0.538 0.378,-0.527 0.408,-0.505C0.438,-0.483 0.462,-0.452 0.478,-0.412C0.493,-0.371 0.501,-0.324 0.501,-0.269L0.501,-0.259ZM0.443,-0.269C0.443,-0.311 0.437,-0.348 0.426,-0.381C0.414,-0.414 0.396,-0.44 0.373,-0.459C0.35,-0.478 0.32,-0.487 0.286,-0.487C0.247,-0.487 0.215,-0.478 0.19,-0.459C0.166,-0.441 0.147,-0.417 0.134,-0.387L0.134,-0.132C0.148,-0.104 0.168,-0.081 0.193,-0.065C0.218,-0.048 0.249,-0.04 0.287,-0.04C0.321,-0.04 0.35,-0.049 0.373,-0.068C0.397,-0.087 0.414,-0.113 0.426,-0.146C0.437,-0.179 0.443,-0.217 0.443,-0.259L0.443,-0.269Z" style="fill:white;fill-rule:nonzero;"/>
                        </g>
                        <g transform="matrix(181.76,0,0,181.76,1059.82,770.138)">
                            <path d="M0.044,-0.272C0.044,-0.323 0.054,-0.369 0.074,-0.409C0.093,-0.45 0.121,-0.481 0.156,-0.504C0.192,-0.527 0.233,-0.538 0.28,-0.538C0.327,-0.538 0.368,-0.527 0.404,-0.504C0.44,-0.481 0.467,-0.45 0.487,-0.409C0.506,-0.369 0.516,-0.323 0.516,-0.272L0.516,-0.256C0.516,-0.205 0.506,-0.16 0.487,-0.119C0.467,-0.079 0.44,-0.047 0.404,-0.024C0.369,-0.002 0.328,0.01 0.281,0.01C0.234,0.01 0.193,-0.002 0.157,-0.024C0.121,-0.047 0.093,-0.079 0.074,-0.119C0.054,-0.16 0.044,-0.205 0.044,-0.256L0.044,-0.272ZM0.103,-0.256C0.103,-0.217 0.11,-0.181 0.124,-0.148C0.138,-0.115 0.158,-0.089 0.185,-0.069C0.212,-0.05 0.244,-0.04 0.281,-0.04C0.318,-0.04 0.349,-0.05 0.376,-0.069C0.403,-0.089 0.423,-0.115 0.437,-0.148C0.451,-0.181 0.458,-0.217 0.458,-0.256L0.458,-0.272C0.458,-0.311 0.451,-0.347 0.437,-0.379C0.423,-0.412 0.402,-0.439 0.375,-0.458C0.348,-0.478 0.317,-0.488 0.28,-0.488C0.243,-0.488 0.211,-0.478 0.185,-0.458C0.158,-0.439 0.138,-0.412 0.124,-0.379C0.11,-0.347 0.103,-0.311 0.103,-0.272L0.103,-0.256Z" style="fill:white;fill-rule:nonzero;"/>
                        </g>
                        <g transform="matrix(181.76,0,0,181.76,1161.7,770.138)">
                            <path d="M0.72,-0.528L0.566,-0L0.516,-0L0.38,-0.419L0.374,-0.448L0.367,-0.419L0.234,-0L0.184,-0L0.031,-0.528L0.091,-0.528L0.203,-0.122L0.211,-0.077L0.223,-0.124L0.35,-0.528L0.4,-0.528L0.525,-0.127L0.54,-0.072L0.55,-0.123L0.659,-0.528L0.72,-0.528Z" style="fill:white;fill-rule:nonzero;"/>
                        </g>
                        <g transform="matrix(181.76,0,0,181.76,1298.82,770.138)">
                            <path d="M0.103,-0.261L0.103,-0.25C0.103,-0.211 0.11,-0.175 0.125,-0.143C0.141,-0.111 0.162,-0.086 0.189,-0.067C0.217,-0.049 0.248,-0.04 0.283,-0.04C0.315,-0.04 0.343,-0.045 0.367,-0.057C0.391,-0.068 0.412,-0.087 0.431,-0.112L0.468,-0.084C0.449,-0.056 0.424,-0.033 0.393,-0.016C0.363,0.001 0.325,0.01 0.281,0.01C0.236,0.01 0.195,-0.001 0.159,-0.023C0.123,-0.046 0.095,-0.076 0.074,-0.116C0.054,-0.155 0.044,-0.2 0.044,-0.25L0.044,-0.271C0.044,-0.323 0.054,-0.37 0.075,-0.411C0.096,-0.451 0.123,-0.483 0.158,-0.505C0.193,-0.527 0.23,-0.538 0.271,-0.538C0.314,-0.538 0.352,-0.528 0.383,-0.507C0.415,-0.487 0.439,-0.458 0.455,-0.422C0.471,-0.385 0.479,-0.344 0.479,-0.296L0.479,-0.261L0.103,-0.261ZM0.271,-0.488C0.241,-0.488 0.215,-0.481 0.191,-0.466C0.168,-0.452 0.148,-0.431 0.133,-0.404C0.118,-0.377 0.109,-0.346 0.105,-0.311L0.421,-0.311L0.421,-0.317C0.42,-0.347 0.414,-0.376 0.403,-0.402C0.391,-0.428 0.374,-0.449 0.352,-0.465C0.329,-0.48 0.302,-0.488 0.271,-0.488Z" style="fill:white;fill-rule:nonzero;"/>
                        </g>
                        <g transform="matrix(181.76,0,0,181.76,1392.81,770.138)">
                            <path d="M0.32,-0.479C0.305,-0.481 0.292,-0.482 0.281,-0.482C0.243,-0.482 0.212,-0.472 0.187,-0.451C0.162,-0.43 0.145,-0.401 0.135,-0.364L0.135,-0L0.076,-0L0.076,-0.528L0.133,-0.528L0.135,-0.445C0.149,-0.475 0.169,-0.497 0.194,-0.514C0.219,-0.53 0.249,-0.538 0.283,-0.538C0.29,-0.538 0.297,-0.538 0.305,-0.536C0.312,-0.535 0.318,-0.534 0.322,-0.532L0.32,-0.479Z" style="fill:white;fill-rule:nonzero;"/>
                        </g>
                        <g transform="matrix(181.76,0,0,181.76,1454.05,770.138)">
                            <path d="M0.103,-0.261L0.103,-0.25C0.103,-0.211 0.11,-0.175 0.125,-0.143C0.141,-0.111 0.162,-0.086 0.189,-0.067C0.217,-0.049 0.248,-0.04 0.283,-0.04C0.315,-0.04 0.343,-0.045 0.367,-0.057C0.391,-0.068 0.412,-0.087 0.431,-0.112L0.468,-0.084C0.449,-0.056 0.424,-0.033 0.393,-0.016C0.363,0.001 0.325,0.01 0.281,0.01C0.236,0.01 0.195,-0.001 0.159,-0.023C0.123,-0.046 0.095,-0.076 0.074,-0.116C0.054,-0.155 0.044,-0.2 0.044,-0.25L0.044,-0.271C0.044,-0.323 0.054,-0.37 0.075,-0.411C0.096,-0.451 0.123,-0.483 0.158,-0.505C0.193,-0.527 0.23,-0.538 0.271,-0.538C0.314,-0.538 0.352,-0.528 0.383,-0.507C0.415,-0.487 0.439,-0.458 0.455,-0.422C0.471,-0.385 0.479,-0.344 0.479,-0.296L0.479,-0.261L0.103,-0.261ZM0.271,-0.488C0.241,-0.488 0.215,-0.481 0.191,-0.466C0.168,-0.452 0.148,-0.431 0.133,-0.404C0.118,-0.377 0.109,-0.346 0.105,-0.311L0.421,-0.311L0.421,-0.317C0.42,-0.347 0.414,-0.376 0.403,-0.402C0.391,-0.428 0.374,-0.449 0.352,-0.465C0.329,-0.48 0.302,-0.488 0.271,-0.488Z" style="fill:white;fill-rule:nonzero;"/>
                        </g>
                        <g transform="matrix(181.76,0,0,181.76,1548.03,770.138)">
                            <path d="M0.479,-0.75L0.479,-0L0.424,-0L0.421,-0.071C0.403,-0.045 0.38,-0.025 0.353,-0.011C0.325,0.003 0.293,0.01 0.256,0.01C0.215,0.01 0.18,-0.002 0.149,-0.024C0.118,-0.047 0.095,-0.078 0.078,-0.119C0.062,-0.16 0.053,-0.206 0.053,-0.259L0.053,-0.269C0.053,-0.323 0.061,-0.371 0.078,-0.411C0.094,-0.452 0.118,-0.483 0.149,-0.505C0.179,-0.527 0.215,-0.538 0.257,-0.538C0.293,-0.538 0.325,-0.531 0.352,-0.516C0.379,-0.502 0.402,-0.481 0.42,-0.455L0.42,-0.75L0.479,-0.75ZM0.267,-0.041C0.305,-0.041 0.336,-0.05 0.361,-0.067C0.386,-0.084 0.406,-0.107 0.42,-0.136L0.42,-0.385C0.407,-0.416 0.388,-0.44 0.364,-0.459C0.339,-0.478 0.307,-0.487 0.268,-0.487C0.234,-0.487 0.205,-0.478 0.181,-0.459C0.158,-0.44 0.14,-0.414 0.129,-0.382C0.118,-0.349 0.112,-0.311 0.112,-0.269L0.112,-0.259C0.112,-0.217 0.118,-0.179 0.129,-0.146C0.14,-0.114 0.158,-0.088 0.181,-0.069C0.204,-0.05 0.233,-0.041 0.267,-0.041Z" style="fill:white;fill-rule:nonzero;"/>
                        </g>
                        <g transform="matrix(181.76,0,0,181.76,1693.32,770.138)">
                            <path d="M0.299,-0.538C0.342,-0.538 0.378,-0.527 0.408,-0.505C0.439,-0.483 0.462,-0.452 0.478,-0.412C0.494,-0.371 0.502,-0.324 0.502,-0.269L0.502,-0.259C0.502,-0.206 0.494,-0.159 0.478,-0.119C0.462,-0.078 0.439,-0.047 0.408,-0.024C0.378,-0.002 0.342,0.01 0.3,0.01C0.263,0.01 0.23,0.003 0.202,-0.012C0.174,-0.026 0.151,-0.046 0.133,-0.073L0.13,-0L0.076,-0L0.076,-0.75L0.134,-0.75L0.134,-0.452C0.152,-0.48 0.175,-0.501 0.202,-0.516C0.23,-0.531 0.262,-0.538 0.299,-0.538ZM0.443,-0.269C0.443,-0.334 0.43,-0.387 0.405,-0.427C0.379,-0.467 0.34,-0.487 0.288,-0.487C0.248,-0.487 0.215,-0.477 0.19,-0.457C0.166,-0.437 0.147,-0.411 0.134,-0.379L0.134,-0.141C0.148,-0.111 0.167,-0.087 0.193,-0.068C0.219,-0.05 0.251,-0.041 0.289,-0.041C0.323,-0.041 0.352,-0.05 0.375,-0.069C0.398,-0.088 0.415,-0.114 0.426,-0.146C0.437,-0.179 0.443,-0.216 0.443,-0.259L0.443,-0.269Z" style="fill:white;fill-rule:nonzero;"/>
                        </g>
                        <g transform="matrix(181.76,0,0,181.76,1794.05,770.138)">
                            <path d="M0.461,-0.528L0.237,0.085C0.229,0.108 0.219,0.128 0.209,0.146C0.198,0.164 0.183,0.18 0.163,0.193C0.144,0.207 0.119,0.213 0.089,0.213C0.083,0.213 0.075,0.213 0.066,0.211C0.056,0.21 0.049,0.209 0.044,0.207L0.044,0.158C0.048,0.159 0.052,0.16 0.059,0.161C0.065,0.161 0.07,0.162 0.074,0.162C0.105,0.162 0.129,0.154 0.146,0.138C0.164,0.123 0.178,0.099 0.189,0.066L0.215,-0.004L0.016,-0.528L0.08,-0.528L0.244,-0.084L0.398,-0.528L0.461,-0.528Z" style="fill:white;fill-rule:nonzero;"/>
                        </g>
                    </g>
                </g>
                <path d="M426.182,55.905L403.428,55.905L404.392,53.972L413.606,35.472L414.802,33.07L415.999,35.472L425.219,53.972L426.182,55.905ZM425.37,0.205L423.856,0.205L405.265,0.21C404.308,0.216 403.454,0.761 403.036,1.633L402.838,2.046L402.774,2.078L371.487,61.35L370.649,62.938L369.369,61.68L358.852,51.358L357.157,49.694L359.461,49.108C360.209,48.917 377.795,44.25 377.795,27.412C377.795,0.971 355.915,0.207 353.421,0.207L353.221,0.21L303.147,0.21L303.14,0.209C301.819,0.274 300.76,1.372 300.755,2.713L300.752,3.282L300.745,3.288L300.745,21.053L300.755,21.514C300.761,22.896 301.887,24.021 303.265,24.021L347.029,24.021C350.412,24.021 351.447,27.175 351.526,28.844C351.53,29.132 351.508,31.255 350.093,32.684C349.312,33.472 348.252,33.889 347.029,33.889L303.91,33.889L303.259,33.903C301.884,33.906 300.761,35.031 300.755,36.41L300.752,36.96L300.745,36.968L300.745,61.987L252.74,61.987L252.74,51.996L280.521,51.996L280.941,51.978C282.305,51.968 283.425,50.847 283.437,49.478L283.443,48.864L283.465,48.845L283.465,36.881L283.437,36.397C283.425,35.025 282.304,33.906 280.937,33.903L280.392,33.901L280.379,33.889L252.74,33.889L252.74,24.021L288.3,24.021C289.656,24.021 290.765,22.945 290.814,21.603L290.811,21.59L290.806,21.43L290.806,2.763L290.815,2.672C290.792,1.352 289.744,0.277 288.432,0.209L288.277,0.21L230.81,0.21C229.495,0.284 228.445,1.377 228.443,2.71L228.441,3.28L228.433,3.288L228.433,77.234C228.433,80.933 227.755,83.16 226.801,84.705L316.791,84.705C320.815,84.705 324.262,80.597 324.262,77.234L324.262,61.291L335.216,61.291L335.613,61.717L356.233,83.847C356.735,84.407 357.394,84.705 358.104,84.705L387.518,84.705C388.471,84.705 389.331,84.166 389.761,83.298L389.96,82.897L389.998,82.878L391.953,78.948L392.322,78.207L437.292,78.207L437.661,78.947L439.726,83.089L439.857,83.325C440.289,84.176 441.142,84.705 442.082,84.705L470.058,84.705L425.37,0.205Z" style="fill:rgb(122,201,173);fill-rule:nonzero;"/>
                <path d="M217.495,77.234L217.495,2.716C217.495,1.372 216.435,0.271 215.109,0.208L214.956,0.21L196.181,0.21L196.175,0.209C194.887,0.275 193.851,1.312 193.792,2.599L193.793,2.74L193.793,31.158L169.41,31.158L169.41,3.354L169.391,2.705C169.389,1.368 168.331,0.273 167.008,0.208L166.857,0.21L70.668,0.21C69.349,0.286 68.299,1.381 68.299,2.716C68.299,3.131 68.411,3.538 68.633,3.926L69.043,4.641L69.017,4.679L78.183,20.732L78.2,20.74L78.452,21.161C78.895,21.985 79.734,22.499 80.644,22.501L80.862,22.502L80.874,22.506L98.977,22.506L98.977,82.201L98.964,82.278C99.008,83.623 100.117,84.705 101.473,84.705L120.343,84.705C121.728,84.705 122.854,83.58 122.854,82.198L122.854,81.627L122.859,81.622L122.859,22.506L146.125,22.506L146.125,81.66L146.13,82.198C146.13,83.58 147.256,84.705 148.64,84.705L166.885,84.705C168.264,84.705 169.388,83.583 169.391,82.205L169.392,81.539L169.41,81.525L169.41,53.454L193.793,53.454L193.793,82.339C193.869,83.656 194.966,84.705 196.304,84.705L210.029,84.705C214.05,84.705 217.495,80.597 217.495,77.234Z" style="fill:rgb(122,201,173);fill-rule:nonzero;"/>
                <path d="M565.034,2.716C565.034,1.332 563.908,0.205 562.523,0.205L446.214,0.205L490.908,84.775L556.271,84.775C560.284,84.775 565.034,80.687 565.034,77.234L565.034,2.716Z" style="fill:rgb(28,174,135);fill-rule:nonzero;"/>
                <g transform="matrix(3.94513,0,0,3.94513,68.4182,-639.107)">
                    <path d="M153.961,183.359L155.461,183.359L155.461,174.119C155.461,172.409 154.951,171.059 153.961,170.099C153.031,169.229 151.741,168.719 150.151,168.719C147.991,168.719 146.311,169.649 145.231,171.359C144.361,169.649 142.741,168.719 140.581,168.719C138.811,168.719 137.371,169.349 136.291,170.609L136.291,168.899L134.761,168.899L134.761,183.359L136.291,183.359L136.291,174.389C136.291,171.629 137.761,170.069 140.371,170.069C142.981,170.069 144.361,171.599 144.361,174.389L144.361,183.359L145.891,183.359L145.891,174.119C145.891,171.629 147.451,170.069 149.971,170.069C152.581,170.069 153.961,171.599 153.961,174.389L153.961,183.359Z" style="fill:white;fill-rule:nonzero;"/>
                </g>
                <g transform="matrix(3.94513,0,0,3.94513,68.4182,-639.107)">
                    <path d="M170.521,183.359L172.051,183.359L172.051,168.899L170.521,168.899L170.521,177.869C170.521,180.629 169.051,182.189 166.441,182.189C163.831,182.189 162.451,180.659 162.451,177.869L162.451,168.899L160.921,168.899L160.921,178.139C160.921,179.849 161.431,181.199 162.421,182.159C163.381,183.089 164.671,183.539 166.261,183.539C168.031,183.539 169.441,182.909 170.521,181.649L170.521,183.359Z" style="fill:white;fill-rule:nonzero;"/>
                </g>
                <g transform="matrix(3.94513,0,0,3.94513,68.4182,-639.107)">
                    <path d="M188.101,179.249C188.101,176.429 186.271,175.709 183.871,175.469L181.531,175.259C179.491,175.049 178.591,174.359 178.591,172.829C178.591,171.029 179.881,170.039 182.281,170.039C183.871,170.039 185.221,170.459 186.331,171.269L187.351,170.249C186.061,169.289 184.291,168.719 182.281,168.719C179.131,168.719 177.091,170.309 177.091,172.829C177.091,175.109 178.531,176.369 181.441,176.609L183.841,176.819C185.761,177.029 186.601,177.719 186.601,179.249C186.601,181.199 185.101,182.189 182.251,182.189C180.211,182.189 178.621,181.589 177.511,180.419L176.461,181.469C177.931,182.879 179.791,183.539 182.311,183.539C185.881,183.539 188.101,181.889 188.101,179.249Z" style="fill:white;fill-rule:nonzero;"/>
                </g>
                <g transform="matrix(3.94513,0,0,3.94513,68.4182,-639.107)">
                    <path d="M192.691,183.359L194.221,183.359L194.221,168.899L192.691,168.899L192.691,183.359ZM192.511,163.889L194.401,163.889L194.401,161.999L192.511,161.999L192.511,163.889Z" style="fill:white;fill-rule:nonzero;"/>
                </g>
                <g transform="matrix(3.94513,0,0,3.94513,68.4182,-639.107)">
                    <path d="M210.329,181.319L209.279,180.359C208.049,181.709 207.089,182.189 205.559,182.189C203.909,182.189 202.589,181.559 201.719,180.269C200.999,179.219 200.729,178.079 200.729,176.129C200.729,174.179 200.999,173.039 201.719,171.989C202.589,170.699 203.909,170.069 205.559,170.069C207.089,170.069 208.049,170.519 209.279,171.899L210.329,170.939C208.799,169.229 207.539,168.719 205.559,168.719C201.599,168.719 199.199,171.539 199.199,176.129C199.199,180.719 201.599,183.539 205.559,183.539C207.539,183.539 208.799,183.029 210.329,181.319Z" style="fill:white;fill-rule:nonzero;"/>
                </g>
            </g>
        </g>
    </g>
</svg>
